<?xml version="1.0" standalone="no"?>
<svg xmlns="http://www.w3.org/2000/svg"
     width="128" height="128"
     viewBox="-120 100 2100 2100"
     role="img" aria-label="Synesis icon">
  <title>Synesis</title>
  <g transform="translate(0,2264) scale(0.115,-0.1)"
     fill="currentColor"
     stroke="currentColor"
     stroke-width="260"
     stroke-linejoin="round"
     stroke-linecap="round">
    <path d="M9015 20519 c-1218 -63 -2441 -491 -3440 -1204 -349 -250 -552 -420
-826 -694 -361 -363 -638 -719 -888 -1146 -544 -927 -786 -2071 -655 -3100 68
-536 173 -938 369 -1410 163 -391 379 -765 660 -1140 156 -209 305 -377 539
-610 223 -223 367 -346 656 -564 337 -255 638 -452 1022 -673 534 -305 890
-482 2023 -1003 1286 -591 1708 -804 2198 -1111 730 -457 1279 -1009 1572
-1579 423 -825 458 -1778 93 -2509 -195 -389 -532 -756 -918 -996 -182 -114
-459 -236 -690 -304 -778 -231 -2012 -131 -3135 254 -416 143 -830 331 -1245
567 -162 92 -542 341 -547 358 -2 6 32 26 75 47 42 20 136 72 207 115 398 239
694 552 903 953 251 482 325 1040 206 1567 -62 277 -186 569 -338 797 -103
154 -183 250 -318 382 -132 130 -205 189 -353 287 -443 293 -971 425 -1505
376 -320 -29 -659 -132 -925 -281 -717 -403 -1161 -1107 -1214 -1926 -36 -550
132 -1096 478 -1557 89 -117 282 -315 396 -405 432 -341 939 -520 1478 -520
l109 0 121 -98 c398 -319 876 -622 1362 -862 1275 -631 2738 -892 4081 -730
896 109 1757 407 2549 883 652 392 1220 876 1696 1447 708 849 1128 1817 1243
2870 98 889 -12 1741 -331 2580 -64 169 -221 497 -322 673 -313 547 -799 1109
-1341 1549 -498 404 -1095 778 -1860 1162 -420 212 -714 347 -1598 735 -1396
613 -1986 907 -2476 1234 -859 573 -1386 1278 -1552 2077 -58 277 -69 638 -29
900 63 415 219 769 482 1095 280 347 724 636 1196 779 297 90 670 136 1102
136 989 0 2041 -277 2939 -774 246 -136 516 -307 673 -426 54 -41 62 -51 47
-56 -552 -194 -1021 -610 -1289 -1143 -241 -480 -308 -1066 -180 -1571 185
-733 696 -1321 1390 -1603 289 -118 541 -167 855 -167 255 0 482 35 713 111
153 50 429 185 567 277 269 179 522 441 692 714 166 268 290 621 328 938 14
120 14 418 0 535 -52 428 -224 842 -484 1170 -369 464 -901 768 -1484 849 -62
9 -148 16 -192 16 l-79 0 -93 78 c-417 348 -787 603 -1213 835 -1062 578
-2339 876 -3500 816z m-2700 -1474 c-269 -455 -408 -969 -408 -1505 1 -314 33
-549 114 -847 209 -763 660 -1415 1378 -1992 166 -133 632 -441 866 -571 397
-221 1102 -559 1870 -895 1699 -744 2291 -1046 3060 -1558 647 -431 1157 -930
1542 -1507 201 -302 371 -652 492 -1016 179 -537 254 -998 255 -1554 0 -325
-12 -469 -65 -790 -140 -842 -507 -1625 -1087 -2318 -206 -247 -482 -523 -745
-745 -113 -97 -376 -293 -534 -399 -139 -93 -365 -230 -370 -224 -2 1 27 52
63 112 216 358 360 761 425 1189 26 177 37 562 20 751 -79 893 -438 1668
-1080 2327 -255 262 -484 454 -826 693 -580 406 -1068 660 -2705 1407 -1165
532 -1798 865 -2375 1252 -758 507 -1268 999 -1667 1610 -412 629 -649 1286
-740 2050 -21 174 -17 744 5 920 168 1302 876 2482 1988 3312 211 158 557 389
566 379 2 -2 -17 -38 -42 -81z m7763 -1044 c466 -103 856 -404 1056 -815 60
-124 111 -275 138 -409 32 -159 32 -444 0 -594 -62 -285 -200 -546 -400 -754
-255 -266 -566 -423 -927 -470 -122 -16 -374 -6 -490 19 -459 99 -857 408
-1068 827 -112 224 -157 420 -157 679 -1 223 32 398 111 596 102 255 321 523
554 679 215 144 397 217 640 257 120 20 423 11 543 -15z m-9053 -10581 c377
-34 705 -188 976 -459 551 -553 632 -1372 197 -2014 -90 -133 -294 -334 -431
-425 -408 -271 -905 -341 -1362 -191 -49 16 -148 58 -220 94 -435 215 -753
634 -852 1122 -25 126 -25 461 0 588 127 628 613 1122 1235 1255 164 35 302
44 457 30z"/>
  </g>
</svg>