<?xml version="1.0" standalone="no"?>
<svg xmlns="http://www.w3.org/2000/svg"
     width="128" height="128"
     viewBox="0 0 2796 2796"
     role="img" aria-label="Synesis icon">
  <title>Synesis</title>
  <path d="M 1368.019 461.122 C 1251.722 467.771, 1134.453 506.858, 1037 571.454 C 991.287 601.755, 952.968 633.757, 919.895 669.253 C 886.361 705.244, 861.932 738.169, 838.583 778.842 C 792.774 858.642, 767.927 956.459, 770.341 1047.500 C 773.325 1160.016, 810.859 1265.975, 880.507 1358.500 C 904.617 1390.530, 940.366 1427.958, 972.524 1454.840 C 1001.042 1478.679, 1052.693 1514.979, 1087.500 1535.643 C 1149.339 1572.356, 1185.357 1590.463, 1319.560 1652.301 C 1445.572 1710.365, 1493.311 1734.985, 1541 1766.501 C 1572.200 1787.121, 1594.248 1805.061, 1619.550 1830.414 C 1639.208 1850.112, 1650.566 1863.697, 1663.514 1883 C 1688.053 1919.583, 1704.441 1964.424, 1710.112 2010.500 C 1711.719 2023.559, 1711.719 2057.798, 1710.112 2070.500 C 1705.571 2106.387, 1694.349 2137.862, 1676.240 2165.500 C 1656.563 2195.532, 1626.400 2224.199, 1596.755 2241.042 C 1574.529 2253.671, 1543.874 2265.447, 1520.500 2270.336 C 1450.442 2284.989, 1351.972 2276.601, 1257.322 2247.918 C 1203.519 2231.613, 1144.025 2204.691, 1097.250 2175.481 C 1089.412 2170.587, 1083 2166.338, 1083 2166.039 C 1083 2165.740, 1086.698 2163.247, 1091.218 2160.498 C 1104.440 2152.457, 1121.891 2138.925, 1133.994 2127.328 C 1201.436 2062.702, 1227.841 1967.041, 1202.519 1879.068 C 1190.586 1837.609, 1169.844 1801.378, 1141.008 1771.627 C 1126.305 1756.457, 1114.804 1746.828, 1098.494 1736.032 C 1058.526 1709.577, 1016.114 1696.073, 967.500 1694.321 C 912.380 1692.335, 856.504 1709.209, 812.296 1741.190 C 757.439 1780.876, 722.480 1836.647, 710.244 1904 C 707.818 1917.351, 707.605 1920.719, 707.557 1946.500 C 707.499 1977.753, 708.680 1987.546, 715.511 2012.469 C 724.145 2043.972, 741.565 2078.013, 762.079 2103.468 C 770.984 2114.518, 791.811 2135.211, 802 2143.132 C 845.960 2177.310, 894.761 2195.414, 949 2197.667 L 964.500 2198.311 971.500 2204.003 C 991.908 2220.596, 1027.859 2245.494, 1054.500 2261.482 C 1198.383 2347.835, 1369.572 2385.964, 1528 2366.945 C 1681.242 2348.549, 1826.856 2274.476, 1936.186 2159.304 C 1998.267 2093.905, 2042.992 2020.262, 2068.766 1941 C 2107.154 1822.945, 2104.836 1695.438, 2062.137 1576.370 C 2054.165 1554.141, 2037.230 1517.660, 2025.059 1496.500 C 1993.028 1440.811, 1944.932 1384.893, 1889 1338.311 C 1863.505 1317.078, 1821.255 1287.797, 1783.820 1265.416 C 1724.269 1229.813, 1669.632 1202.940, 1543.500 1147.216 C 1434.633 1099.119, 1387.719 1077.156, 1347.500 1055.454 C 1276.936 1017.380, 1228.120 978.095, 1192.930 931.066 C 1166.710 896.025, 1149.638 857.689, 1143.111 819.198 C 1125.797 717.091, 1168.230 629.676, 1257.028 584.524 C 1292.194 566.642, 1323.552 559.038, 1375 555.918 C 1479.902 549.557, 1602.466 580.151, 1699.500 636.920 C 1717.014 647.167, 1734.971 658.341, 1734.983 659 C 1734.987 659.275, 1731.731 661.174, 1727.746 663.219 C 1710.155 672.250, 1689.119 688.002, 1671.953 705 C 1631.997 744.565, 1608.127 793.042, 1599.817 851.500 C 1597.858 865.283, 1598.152 901.941, 1600.335 916 C 1613.014 997.665, 1664.508 1068.057, 1737.500 1103.502 C 1744.650 1106.974, 1754.325 1111.243, 1759 1112.988 C 1763.675 1114.733, 1769.207 1116.804, 1771.294 1117.590 C 1777.985 1120.110, 1798.150 1124.852, 1810 1126.692 C 1826.319 1129.227, 1866.929 1129.201, 1882.500 1126.646 C 1913.935 1121.488, 1938.631 1112.795, 1968.037 1096.536 C 2023.727 1065.743, 2066.485 1011.851, 2084.552 949.681 C 2091.876 924.481, 2093.980 909.126, 2093.992 880.801 C 2094.001 857.752, 2092.387 843.384, 2087.555 823.500 C 2064.876 730.189, 1993.378 659.877, 1899.931 638.991 C 1889.726 636.710, 1869.783 634, 1863.199 634 C 1858.754 633.999, 1857.906 633.509, 1847.500 624.922 C 1787.127 575.099, 1720.944 535.646, 1653.500 509.273 C 1560.728 472.995, 1459.368 455.900, 1368.019 461.122 M 1046.852 678.765 C 957.663 750.218, 897.861 843.418, 874.634 947.163 C 867.518 978.945, 866.764 986.290, 866.259 1028.691 C 865.869 1061.448, 866.068 1070.067, 867.471 1081.191 C 877.534 1160.995, 906.277 1232.451, 954.481 1297.500 C 993.986 1350.810, 1048.548 1398.507, 1124 1445.690 C 1175.044 1477.609, 1227.544 1504.546, 1336.422 1554.679 C 1515.758 1637.255, 1555.412 1658.249, 1620 1704.810 C 1732.679 1786.039, 1794.858 1887.761, 1805.942 2009 C 1808.139 2033.038, 1806.813 2071.879, 1802.979 2095.728 C 1799.626 2116.592, 1793.082 2141.275, 1786.089 2159.433 C 1784.409 2163.797, 1783.247 2167.581, 1783.508 2167.842 C 1784.400 2168.733, 1814.475 2145.186, 1829 2132.224 C 1846.239 2116.840, 1876.165 2086.467, 1887.855 2072.490 C 1945.032 2004.129, 1980.352 1930.066, 1994.436 1849 C 1999.405 1820.399, 2000.157 1812.287, 2000.706 1781.439 C 2001.599 1731.299, 1997.941 1697.784, 1986.916 1655.068 C 1965.872 1573.544, 1928.659 1508.655, 1868.474 1448.541 C 1840.865 1420.965, 1813.434 1398.933, 1775 1373.465 C 1730.888 1344.234, 1700.342 1326.762, 1647.500 1300.535 C 1602.585 1278.243, 1580.460 1268.075, 1482.500 1224.709 C 1357.536 1169.388, 1301.718 1141.586, 1252.765 1110.283 C 1218.456 1088.345, 1198.574 1073.588, 1175.613 1053.020 C 1108.381 992.796, 1066.418 921.992, 1049.955 841 C 1045.058 816.905, 1043.733 800.267, 1044.303 770 C 1044.978 734.102, 1048.680 710.675, 1058.481 680.281 C 1060.837 672.976, 1062.480 667.007, 1062.132 667.015 C 1061.784 667.023, 1054.908 672.310, 1046.852 678.765 M 1831 745.011 C 1801.387 747.427, 1770.112 763.238, 1747.407 787.270 C 1728.194 807.606, 1716.210 831.194, 1711.765 857.423 C 1710.134 867.047, 1710.215 896.639, 1711.897 906 C 1719.281 947.092, 1747.758 984.270, 1786.939 1003.969 C 1815.477 1018.318, 1848.750 1021.669, 1880.691 1013.413 C 1921.763 1002.796, 1957.079 971.356, 1973.262 931 C 1980.813 912.170, 1981.501 908.070, 1981.488 882 C 1981.476 856.275, 1981.076 853.715, 1973.882 833.320 C 1960.283 794.763, 1930.208 765.422, 1889.594 751.089 C 1874.478 745.755, 1851.321 743.352, 1831 745.011 M 936.500 1806.556 C 890.116 1815.225, 852.452 1843.437, 832.443 1884.500 C 821.498 1906.961, 819 1918.389, 819 1946 C 819 1967.555, 819.921 1974.515, 824.658 1988.767 C 840.706 2037.045, 880.859 2073.394, 930.500 2084.584 C 941.696 2087.107, 968.651 2087.612, 981.159 2085.531 C 1002.517 2081.980, 1025.088 2072.579, 1041 2060.610 C 1052.730 2051.786, 1070.643 2033.151, 1077.484 2022.655 C 1087.551 2007.212, 1095.338 1987.443, 1098.519 1969.259 C 1100.591 1957.411, 1100.563 1935.769, 1098.459 1923.372 C 1094.114 1897.764, 1081.844 1872.497, 1064.272 1852.976 C 1042.489 1828.776, 1018.117 1814.278, 987.748 1807.453 C 977.331 1805.112, 947.062 1804.583, 936.500 1806.556" fill="currentColor" fill-rule="evenodd" stroke="none"/>
</svg>
